HIERARCHY
ROOT Hips
{
  OFFSET -321.813 95.2581 -289.396
  CHANNELS 6 Xposition Yposition Zposition Zrotation Xrotation Yrotation
  JOINT ToSpine
  {
    OFFSET -2.69724 7.43032 -0.144315
    CHANNELS 3 Zrotation Xrotation Yrotation
    JOINT Spine
    {
      OFFSET -0.0310711 10.7595 1.96963
      CHANNELS 3 Zrotation Xrotation Yrotation
      JOINT Spine1
      {
        OFFSET 13.1342 3.43533 0.764692
        CHANNELS 3 Zrotation Xrotation Yrotation
        JOINT Neck
        {
          OFFSET 29.8703 7.82586 -0.130764
          CHANNELS 3 Zrotation Xrotation Yrotation
          JOINT Head
          {
            OFFSET 9.52751 0.295786 -0.907742
            CHANNELS 3 Zrotation Xrotation Yrotation
            End Site
            {
              OFFSET 16.4037 0.713936 2.7358
            }
          }
        }
        JOINT LeftShoulder
        {
          OFFSET 27.5574 4.95586 2.47156
          CHANNELS 3 Zrotation Xrotation Yrotation
          JOINT LeftArm
          {
            OFFSET 1.20734 -0.998971 20.1238
            CHANNELS 3 Zrotation Xrotation Yrotation
            JOINT LeftForeArm
            {
              OFFSET 26.8049 -0.0536703 -0.155908
              CHANNELS 3 Zrotation Xrotation Yrotation
              JOINT LeftHand
              {
                OFFSET 26.6817 0 0.320147
                CHANNELS 3 Zrotation Xrotation Yrotation
                End Site
                {
                  OFFSET 18.6119 0 0.382219
                }
              }
            }
          }
        }
        JOINT RightShoulder
        {
          OFFSET 27.5927 4.71444 -2.65209
          CHANNELS 3 Zrotation Xrotation Yrotation
          JOINT RightArm
          {
            OFFSET 2.83739 -1.17114 -18.7564
            CHANNELS 3 Zrotation Xrotation Yrotation
            JOINT RightForeArm
            {
              OFFSET 28.839 -0.0548439 1.22491
              CHANNELS 3 Zrotation Xrotation Yrotation
              JOINT RightHand
              {
                OFFSET 26.5114 0 -0.101894
                CHANNELS 3 Zrotation Xrotation Yrotation
                End Site
                {
                  OFFSET 18.2168 0 0
                }
              }
            }
          }
        }
      }
    }
  }
  JOINT LeftUpLeg
  {
    OFFSET -4.76168 -1.9167 -10.2353
    CHANNELS 3 Zrotation Xrotation Yrotation
    JOINT LeftLeg
    {
      OFFSET 2.55951 -42.0585 -8.02213
      CHANNELS 3 Zrotation Xrotation Yrotation
      JOINT LeftFoot
      {
        OFFSET 3.16357 -42.5282 -3.95426
        CHANNELS 3 Zrotation Xrotation Yrotation
        JOINT LeftToeBase
        {
          OFFSET 0.346054 -6.02161 12.8035
          CHANNELS 3 Zrotation Xrotation Yrotation
          End Site
          {
            OFFSET 0.134235 -1.35082 5.13018
          }
        }
      }
    }
  }
  JOINT RightUpLeg
  {
    OFFSET -4.94151 -1.41743 10.6446
    CHANNELS 3 Zrotation Xrotation Yrotation
    JOINT RightLeg
    {
      OFFSET -2.56294 -42.0364 -7.94377
      CHANNELS 3 Zrotation Xrotation Yrotation
      JOINT RightFoot
      {
        OFFSET -3.0952 -42.555 -4.02241
        CHANNELS 3 Zrotation Xrotation Yrotation
        JOINT RightToeBase
        {
          OFFSET -0.0828122 -6.13587 12.8035
          CHANNELS 3 Zrotation Xrotation Yrotation
          End Site
          {
            OFFSET -0.131328 -1.35082 5.13018
          }
        }
      }
    }
  }
}
MOTION
Frames:	17
Frame Time:	0.0333333
27.6817 96.898 -33.7805 69.3573 -34.9621 -12.0277 -70.1915 0 88.8779 98.8216 72.2802 -7.05702 -0.564444 22.6213 0.936115 -155.149 24.2052 176.576 -156.707 63.5553 -172.711 -0.550346 -16.6076 -35.5519 -73.4675 44.4849 -76.7249 8.1652 12.3639 -33.5122 0.420957 0.000575564 0.35866 -2.0961 6.61875 46.0236 -56.9187 -25.2743 97.7182 9.14061 -12.9531 35.7816 0.58676 0.000331095 0.0646654 -40.3426 2.15037 95.9301 -3.54979 52.0164 -2.86395 -1.64971 -5.75674 -0.412516 3.18089 -9.4996 12.2109 -54.3553 4.4863 82.31 0.867838 36.1417 -1.37493 -8.46113 -7.18328 1.27387 1.68064 -13.4278 -0.963192 
24.5019 97.3731 -35.9858 69.1573 -34.164 -12.1666 -70.1915 0 88.8779 91.4153 71.7123 0.47998 1.31715 22.0908 0.0760809 -154.879 23.8891 176.084 -156.274 63.1876 -173.409 -0.423274 -16.2985 -34.6978 -74.5751 43.8716 -77.1371 9.6834 12.6651 -37.5364 0.420957 0.000575564 0.35866 -2.08987 6.57937 46.1204 -53.0141 -27.555 96.062 7.72342 -12.5124 32.1951 0.58676 0.000331095 0.0646654 -44.3837 1.74886 95.8947 -4.19427 56.4231 -1.45117 -2.40128 -5.73774 -0.351276 2.44181 -7.7816 9.74909 -51.8064 4.09987 81.9501 1.07168 35.4905 -0.538567 -8.26778 -4.95483 1.24767 1.66347 -12.7331 -2.21746 
21.3144 97.2029 -38.2737 69.0045 -33.4 -11.7254 -70.1915 0 88.8779 86.4955 70.894 5.27023 2.22378 21.1775 0.566471 -155.054 23.5539 175.934 -155.825 62.7563 -174.723 -0.345499 -16.0475 -34.3928 -76.1928 42.9978 -76.9055 10.8103 12.2077 -41.7006 0.420957 0.000575564 0.35866 -2.04991 6.44165 46.1983 -49.6932 -29.6617 94.3512 5.97355 -11.2834 28.3558 0.58676 0.000331095 0.0646654 -48.7204 2.10002 95.7234 -5.15579 59.631 -2.18022 -1.31718 -3.09273 -0.197789 3.74508 -9.69985 7.91308 -49.0655 3.85986 80.8171 1.28947 35.2625 -2.1774 -10.4294 -4.3272 1.44347 1.39987 -12.0475 1.0988 
18.0537 96.6998 -40.6445 68.5195 -32.901 -11.8347 -70.1915 0 88.8779 81.8365 69.885 9.64027 3.08091 20.2153 0.709122 -155.266 23.4365 176.315 -156.43 62.6814 -174.286 -0.230929 -15.7148 -33.7229 -80.214 42.2377 -75.0878 14.9822 14.3092 -46.8149 0.420957 0.000575564 0.35866 -2.12948 6.61165 46.5388 -52.6995 -31.4107 89.8339 4.43038 -14.7408 25.1455 0.58676 0.000331095 0.0646654 -53.2761 2.13301 95.3956 -5.98197 60.8225 -4.57393 -3.45249 -2.57066 0.0775079 3.96107 -10.0861 7.93319 -45.7101 3.44673 80.3827 1.24674 35.93 -2.83377 -5.25927 -6.18333 1.02577 0.137891 -5.28886 4.13756 
14.6691 95.8167 -43.1756 67.8225 -32.4956 -12.0872 -70.1915 0 88.8779 76.8188 68.9626 13.7233 4.13256 19.231 1.77846 -156.226 23.1177 176.508 -155.897 62.261 -175.701 -0.292801 -15.8817 -34.1514 -81.1373 40.1998 -75.5841 16.715 14.0831 -50.4961 0.420957 0.000575564 0.35866 -2.14676 6.73707 46.1926 -65.0572 -31.5037 80.9126 3.06045 -24.4356 22.5846 0.58676 0.000331095 0.0646654 -57.6432 2.11212 95.1306 -6.39172 60.36 -7.88182 -4.18817 -2.04387 0.216925 5.97873 -13.5049 6.68595 -41.5201 3.19549 79.9404 1.35286 37.497 -1.84857 -7.51899 -5.66477 1.19146 0.769618 -6.3245 -0.141333 
11.072 94.6602 -45.8762 67.2571 -31.9205 -12.3622 -70.1915 0 88.8779 74.7641 68.0142 14.8439 4.48746 18.237 2.13817 -157.283 22.4643 175.803 -155.615 61.5342 -176.805 -0.200185 -15.6795 -33.2868 -82.105 39.162 -76.6597 15.3741 11.9953 -52.4409 0.420957 0.000575564 0.35866 -2.06835 6.35584 46.8959 -77.8345 -28.3219 72.557 2.08916 -34.5229 20.1591 0.58676 0.000331095 0.0646654 -61.5755 1.7478 94.4253 -6.20138 58.1178 -11.3862 -4.6527 -0.605954 0.43963 7.2789 -15.7292 5.09257 -36.9444 3.12687 80.5419 1.29479 39.353 -2.94876 -8.21536 -5.15447 1.24438 0.728658 -6.071 -0.048858 
7.35472 93.4334 -48.7529 67.1444 -31.5021 -12.4461 -70.1915 0 88.8779 74.8274 67.4416 13.5629 4.3257 17.3411 2.90449 -157.768 21.9699 175.404 -155.046 60.9495 -177.605 -0.125741 -15.4682 -32.7597 -83.0586 37.8143 -77.9144 15.7865 11.6772 -53.9141 0.420957 0.000575564 0.35866 -2.03745 6.28413 46.7931 -85.2163 -26.2229 67.3346 2.18062 -38.6555 19.0857 0.58676 0.000331095 0.0646654 -65.0398 1.19884 93.3795 -5.78048 55.0745 -14.6259 -5.32693 -1.26672 0.441395 6.45763 -14.1357 4.06487 -32.4921 3.04833 81.2865 1.28103 41.3398 -3.96148 -7.76504 -6.28536 1.21769 0.114128 -0.0673012 -0.721131 
3.34642 92.5115 -51.9894 67.2698 -30.5005 -12.1059 -70.1915 0 88.8779 75.824 66.903 11.6885 4.51336 16.5225 3.11977 -157.898 21.7843 174.609 -154.653 60.7436 -177.571 -0.187557 -15.7601 -32.6931 -84.7074 36.014 -79.2051 15.5217 11.3753 -54.1334 0.420957 0.000575564 0.35866 -2.03942 6.04781 48.0548 -87.4279 -24.2811 65.3611 2.03973 -37.3371 18.8374 0.58676 0.000331095 0.0646654 -67.1639 -0.10643 90.3892 -4.93968 50.8358 -15.2507 -4.90919 -2.28849 0.267997 8.20361 -17.3608 2.48902 -29.2038 2.23926 80.9669 1.22286 40.7451 -4.03494 -8.34896 -2.59526 1.24252 0.116028 -0.938445 -0.0959296 
-0.85295 92.216 -55.5421 67.2722 -29.4456 -12.0157 -70.1915 0 88.8779 78.4183 66.9478 7.78526 3.59393 15.9141 4.03601 -157.727 21.8462 173.451 -153.279 60.6341 -178.854 -0.379811 -16.5552 -32.9361 -85.7716 34.7832 -81.167 15.5326 11.9742 -52.7822 0.420957 0.000575564 0.35866 -1.99674 5.79213 48.796 -87.2057 -23.7448 65.2334 1.31616 -34.4107 18.6568 0.58676 0.000331095 0.0646654 -67.7511 -1.40014 88.1361 -4.51112 45.9816 -19.1376 -0.711172 -4.02797 -0.33911 12.8139 -25.1313 7.91509 -27.3236 0.556486 79.5611 0.935803 36.8169 -4.28839 -8.79537 0.956447 1.28583 -1.83005 3.39395 7.2634 
-5.29153 92.2463 -59.3342 67.2274 -28.6304 -12.8857 -70.1915 0 88.8779 80.3867 67.1924 3.34424 2.77369 15.5937 4.90816 -157.28 21.9004 171.699 -152.057 60.5788 -179.49 -0.425905 -16.8736 -32.5224 -84.4305 34.0115 -84.6264 13.2984 11.1274 -50.3277 0.420957 0.000575564 0.35866 -2.0035 5.79228 48.9036 -85.9404 -24.5729 67.0889 1.31952 -32.1984 19.1092 0.58676 0.000331095 0.0646654 -66.1581 -2.63265 89.0954 -4.12312 43.9385 -17.6108 -1.04084 -14.1958 -1.2178 7.60711 -16.2215 2.59587 -27.0714 -1.23314 80.427 1.71848 29.5775 -3.57127 -6.72869 7.39738 0.879421 -3.15209 6.96734 10.2228 
-9.67057 92.6434 -63.0275 67.4695 -29.0701 -15.0691 -70.1915 0 88.8779 83.5326 68.0198 -3.23738 1.11282 15.9856 5.83918 -156.897 21.8684 170.715 -151.72 60.5822 -179.044 -0.441555 -17.0435 -32.1777 -84.7938 34.0549 -85.2817 13.6512 11.8212 -49.407 0.420957 0.000575564 0.35866 -2.03564 5.85793 49.0433 -81.3938 -26.3659 70.6937 1.88021 -27.4308 20.559 0.58676 0.000331095 0.0646654 -64.6569 -5.18609 92.0074 -4.00974 41.3291 -19.6891 0.696194 -16.8753 -1.42761 6.50498 -14.6884 9.95197 -28.9945 -2.62969 84.0659 2.51625 19.606 0.0279053 1.62641 16.9719 -1.59275 -0.511014 2.01839 1.42325 
-13.6223 93.0548 -66.6375 67.6661 -30.7467 -16.3162 -70.1915 0 88.8779 88.4589 68.6579 -8.45583 -0.57525 16.8792 5.47311 -156.37 21.8483 171.861 -153.638 60.8657 -176.62 -0.487277 -17.1393 -32.5563 -83.1321 34.2072 -85.4104 12.6357 11.3808 -48.2191 0.420957 0.000575564 0.35866 -2.04241 5.94463 48.6648 -75.3043 -28.1953 75.1661 2.82046 -22.1523 22.2796 0.58676 0.000331095 0.0646654 -63.0886 -7.13998 93.8179 -3.65308 39.2283 -17.7672 2.02989 -17.5112 -1.44075 6.13837 -14.2184 11.6534 -30.5539 -3.61264 83.7918 2.87574 15.4802 10.6452 7.29079 17.1634 -3.18857 1.99215 -13.3728 -7.9753 
-17.1774 93.9129 -69.8591 67.5141 -32.0624 -16.4991 -70.1915 0 88.8779 89.6816 69.256 -8.58395 -0.697685 17.6749 5.05449 -156.371 21.882 172.579 -153.477 60.8443 -177.077 -0.587375 -17.299 -33.5188 -81.8467 35.1266 -84.5781 12.2449 11.7412 -46.4286 0.420957 0.000575564 0.35866 -2.00687 5.84736 48.6457 -65.9572 -29.2977 80.9805 3.26608 -13.2514 24.4572 0.58676 0.000331095 0.0646654 -60.806 -7.76457 94.092 -3.3307 37.999 -17.1095 3.19452 -16.539 -1.35756 5.46839 -13.2519 12.796 -31.2223 -3.11561 84.6078 1.41163 18.8226 15.7858 1.36341 12.2165 -1.10563 2.28891 -19.12 -10.7779 
-20.555 95.0019 -72.7594 67.8679 -33.8039 -16.2882 -70.1915 0 88.8779 92.1671 69.8662 -9.86843 -1.1519 18.514 4.63854 -155.558 21.7857 173.214 -153.949 60.8243 -176.306 -0.571312 -17.1194 -33.9112 -79.3805 36.9497 -83.9353 11.9303 12.7015 -43.4515 0.420957 0.000575564 0.35866 -2.03315 5.92315 48.6384 -60.9289 -28.7129 85.0432 3.56366 -8.79278 26.1187 0.58676 0.000331095 0.0646654 -59.1762 -7.73812 94.8432 -2.73085 36.7069 -16.3217 2.87385 -15.2174 -1.28886 4.34326 -11.4068 12.3683 -32.8643 -2.51879 86.547 0.461657 25.2296 13.7291 -2.00125 7.48747 -0.0381243 2.3124 -21.2244 -12.2819 
-23.8453 96.1075 -75.3321 67.9221 -35.0842 -16.2346 -70.1915 0 88.8779 92.0132 70.3868 -8.95935 -1.21752 19.0712 4.41197 -155.286 21.5422 173.286 -153.902 60.5241 -176.925 -0.51059 -16.8969 -33.7814 -76.7085 39.8194 -83.2331 10.3749 12.655 -39.5127 0.420957 0.000575564 0.35866 -2.0521 5.9777 48.6338 -59.4292 -27.5039 87.879 3.98045 -7.69223 27.8919 0.58676 0.000331095 0.0646654 -57.3989 -7.22863 96.0051 -2.0899 35.1318 -14.4683 2.28153 -14.4117 -1.2428 2.30782 -7.27299 8.51169 -34.9922 -1.75119 91.7296 1.62394 32.6275 4.55552 -2.26875 3.53426 0.238224 2.28491 -21.6041 -13.3938 
-27.1383 97.0428 -77.7251 67.8113 -35.6012 -15.8047 -70.1915 0 88.8779 89.1176 70.8947 -5.32354 -0.551067 19.4118 4.53995 -155.246 21.4151 173.076 -153.679 60.3181 -177.802 -0.534454 -16.992 -33.8054 -74.1576 42.6163 -82.783 9.40228 13.45 -35.0932 0.420957 0.000575564 0.35866 -2.08161 6.04932 48.6993 -60.6493 -26.2493 89.2125 5.06467 -8.83053 30.3158 0.58676 0.000331095 0.0646654 -55.7082 -6.25485 96.9489 -1.71829 33.1338 -15.4979 1.67735 -9.8213 -0.938541 3.72806 -9.71268 8.15448 -37.3444 -2.12898 91.2514 1.58522 40.1312 -0.578579 -4.19723 1.22413 0.640905 2.29867 -20.6025 -12.4506 
-30.4511 97.6985 -80.0004 68.2858 -35.9009 -14.8659 -70.1915 0 88.8779 89.7592 71.139 -5.0881 -0.93717 19.7086 4.36888 -155.283 21.717 172.891 -153.761 60.5675 -178.714 -0.446863 -16.7481 -33.315 -70.7618 45.0703 -82.9619 8.19209 13.5231 -31.2909 0.420957 0.000575564 0.35866 -2.01027 5.95786 48.0875 -61.8875 -26.0135 91.2209 5.83188 -9.20467 32.8286 0.58676 0.000331095 0.0646654 -54.2391 -5.1796 97.318 -1.63047 31.7557 -16.6363 1.70701 -7.15379 -0.766726 3.88274 -10.1739 9.27053 -41.3378 -2.76161 89.6954 1.90618 46.0574 -1.93602 -6.395 3.26734 0.904623 2.05919 -26.5629 -16.6947 
